<svg width="22" height="28" viewBox="0 0 22 28" version="1.1" xmlns="http://www.w3.org/2000/svg" xmlns:xlink="http://www.w3.org/1999/xlink" xmlns:figma="http://www.figma.com/figma/ns">
<title>Vector</title>
<desc>Created using Figma</desc>
<g id="Canvas" transform="translate(-280 -454)" figma:type="canvas">
<g id="Vector" style="mix-blend-mode:normal;" figma:type="vector">
<use xlink:href="#path0_fill" transform="translate(280 454)" fill="#556BFF" style="mix-blend-mode:normal;"/>
</g>
</g>
<defs>
<path id="path0_fill" d="M 11 0C 4.94495 0 0 4.91756 0 10.9391C 0 14.853 4.33945 21.0753 7.97248 25.6918C 8.37615 26.1936 8.77982 26.6953 9.18349 27.0968C 9.68807 27.5986 10.2936 28 11 28C 11.7064 28 12.4128 27.6989 12.8165 27.0968C 13.1193 26.6953 13.5229 26.1936 14.0275 25.6918C 17.6606 21.1756 22 14.853 22 10.9391C 22 4.91756 17.055 0 11 0ZM 11 14.2509C 8.6789 14.2509 6.76147 12.3441 6.76147 10.0358C 6.76147 7.7276 8.6789 5.82079 11 5.82079C 13.3211 5.82079 15.2385 7.7276 15.2385 10.0358C 15.2385 12.3441 13.3211 14.2509 11 14.2509Z"/>
</defs>
</svg>
